<svg xmlns="http://www.w3.org/2000/svg" viewBox="0 0 100 100">
  <rect width="100" height="100" rx="22" fill="#7c3aed"/>
  <g transform="translate(10 10) scale(3.3333333333)">
    <path fill="#ffffff" d="M12 3C7.58 3 4 6.58 4 11v8.5c0 .83.67 1.5 1.5 1.5.42 0 .82-.17 1.12-.47L8.5 17.15l2.38 2.38a1.49 1.49 0 002.12 0l2.38-2.38 2.88 2.88c.3.3.7.47 1.12.47.83 0 1.5-.67 1.5-1.5V11c0-4.42-3.58-8-8-8z"/>
    <circle cx="9" cy="10" r="1.35" fill="#7c3aed"/>
    <circle cx="15" cy="10" r="1.35" fill="#7c3aed"/>
  </g>
</svg>
